<?xml version="1.0" standalone="no"?>
<!DOCTYPE svg PUBLIC "-//W3C//DTD SVG 20010904//EN"
 "http://www.w3.org/TR/2001/REC-SVG-20010904/DTD/svg10.dtd">
<svg version="1.0" xmlns="http://www.w3.org/2000/svg"
 width="2386.000000pt" height="974.000000pt" viewBox="0 0 2386.000000 974.000000"
 preserveAspectRatio="xMidYMid meet">
<metadata>
Created by potrace 1.13, written by Peter Selinger 2001-2015
</metadata>
<g transform="translate(0.000000,974.000000) scale(0.100000,-0.100000)"
fill="#000000" stroke="none">
<path d="M8925 9574 c-247 -47 -958 -179 -1580 -295 -1183 -220 -1228 -228
-1655 -308 -146 -28 -521 -98 -835 -156 -313 -58 -664 -123 -780 -145 -400
-75 -1121 -209 -1310 -244 -177 -33 -647 -120 -1890 -352 -280 -52 -557 -104
-614 -115 -57 -10 -105 -20 -107 -21 -1 -2 127 -89 285 -195 405 -272 1118
-751 2321 -1559 261 -175 683 -458 937 -629 255 -170 643 -431 863 -579 353
-237 402 -267 417 -255 13 12 334 368 543 605 30 34 125 140 211 235 85 96
292 327 458 514 167 187 392 439 500 560 108 120 273 305 366 410 94 105 276
310 406 456 130 145 301 336 379 424 79 88 195 219 259 290 64 72 159 177 211
235 52 59 109 122 125 140 17 19 104 118 195 220 91 102 244 273 339 380 95
107 188 211 206 230 127 139 216 243 203 239 -2 0 -205 -39 -453 -85z"/>
<path d="M1320 4694 c0 -3 11 -15 25 -26 58 -46 70 -129 36 -253 -11 -39 -75
-203 -141 -365 -67 -162 -148 -358 -180 -435 -31 -77 -159 -386 -284 -687
-124 -301 -226 -552 -226 -558 0 -6 51 -10 141 -10 l140 0 23 53 c13 28 79
190 147 360 l123 307 506 0 505 0 153 -360 154 -360 164 0 c159 0 165 1 159
19 -3 11 -156 370 -339 798 -183 428 -404 946 -492 1151 l-159 372 -227 0
c-126 0 -228 -3 -228 -6z m425 -694 c218 -513 285 -674 285 -682 0 -4 -183 -8
-406 -8 -329 0 -405 2 -401 13 100 262 392 966 398 960 4 -4 60 -132 124 -283z"/>
<path d="M9560 4695 c0 -2 14 -12 31 -21 60 -30 106 -97 130 -186 8 -30 14
-255 19 -728 7 -656 8 -689 29 -785 78 -351 288 -564 631 -640 100 -22 383
-31 489 -16 202 30 372 102 487 208 89 81 169 211 213 346 53 159 53 165 58
1025 l5 802 -166 0 -166 0 0 -792 c0 -734 -2 -800 -19 -883 -46 -221 -165
-356 -376 -427 -61 -20 -89 -23 -225 -23 -138 0 -163 3 -230 25 -85 28 -205
104 -249 157 -44 53 -86 138 -113 223 l-22 75 -4 823 -3 822 -259 0 c-143 0
-260 -2 -260 -5z"/>
<path d="M13960 4669 c-102 -42 -144 -174 -87 -271 57 -97 203 -120 286 -45
86 79 77 230 -19 293 -46 31 -135 42 -180 23z"/>
<path d="M20442 4659 c-116 -58 -130 -236 -24 -317 31 -24 44 -27 112 -27 69
0 80 3 114 29 109 82 94 257 -26 315 -57 27 -121 27 -176 0z"/>
<path d="M21410 4234 c-47 -53 -95 -108 -108 -123 -13 -14 -38 -42 -56 -61
-17 -19 -92 -102 -166 -185 l-135 -150 128 -3 127 -3 0 -467 c0 -269 4 -494
10 -530 30 -186 132 -307 302 -363 61 -20 93 -24 193 -24 131 0 191 11 303 57
l72 30 0 114 c0 63 -2 114 -4 114 -2 0 -33 -13 -67 -30 -126 -59 -298 -77
-374 -37 -45 23 -85 66 -109 117 -20 44 -21 61 -24 533 l-3 487 251 0 250 0 0
120 0 120 -250 0 -250 0 -2 190 -3 191 -85 -97z"/>
<path d="M4584 4282 c-17 -21 -136 -154 -264 -297 l-234 -260 121 -3 121 -3 5
-507 c4 -548 4 -548 61 -660 113 -223 443 -295 754 -166 l62 26 0 114 c0 63
-2 114 -5 114 -3 0 -28 -12 -56 -26 -28 -14 -85 -34 -127 -45 -137 -35 -234
-22 -306 42 -82 72 -81 65 -81 619 l0 485 248 3 247 2 0 115 0 115 -250 0
-250 0 0 185 c0 102 -3 185 -7 184 -5 0 -22 -17 -39 -37z"/>
<path d="M3370 3979 c-198 -17 -362 -114 -432 -257 -31 -63 -33 -72 -33 -177
0 -101 2 -115 29 -170 34 -69 109 -146 188 -193 31 -18 134 -69 229 -113 96
-45 197 -98 225 -119 69 -52 98 -113 92 -192 -6 -79 -44 -133 -123 -173 -56
-28 -65 -30 -179 -30 -99 0 -135 4 -196 24 -76 23 -174 69 -222 102 -14 11
-29 19 -32 19 -3 0 -6 -61 -6 -135 0 -129 1 -135 23 -149 117 -76 409 -117
587 -82 177 35 333 141 393 268 59 124 58 295 0 414 -52 106 -123 158 -396
293 -246 121 -293 152 -316 214 -33 86 8 161 114 208 42 19 67 23 155 23 126
-1 201 -18 311 -74 l80 -40 -3 132 -3 132 -59 23 c-113 46 -269 65 -426 52z"/>
<path d="M6010 3979 c-365 -56 -643 -326 -700 -682 -17 -105 -8 -291 19 -382
119 -401 505 -642 941 -585 379 49 642 292 716 659 20 103 15 291 -11 391 -77
293 -298 508 -597 580 -98 24 -276 33 -368 19z m311 -253 c83 -29 167 -84 219
-145 56 -63 117 -191 136 -281 33 -154 2 -359 -72 -485 -179 -306 -610 -349
-847 -85 -194 216 -196 612 -5 842 137 164 361 224 569 154z"/>
<path d="M8035 3975 c-160 -30 -287 -109 -381 -239 l-21 -29 -7 121 -8 122
-219 0 c-120 0 -219 -4 -219 -9 0 -5 13 -14 29 -20 38 -17 86 -67 108 -116 17
-37 18 -94 23 -740 l5 -700 148 -3 147 -3 0 557 0 556 36 53 c19 30 61 78 93
107 212 196 507 158 602 -78 l24 -59 3 -567 3 -568 150 0 150 0 -4 588 c-3
513 -6 595 -20 651 -77 286 -329 434 -642 376z"/>
<path d="M12815 3981 c-171 -28 -307 -109 -408 -241 l-26 -35 -1 100 c-1 161
25 145 -231 145 -203 0 -256 -7 -198 -25 33 -11 88 -65 110 -107 11 -21 24
-71 29 -111 5 -39 10 -359 10 -709 l0 -638 150 0 150 0 0 564 0 564 43 59
c137 185 349 258 522 179 92 -42 154 -127 175 -238 6 -29 10 -287 10 -589 l0
-539 150 0 150 0 0 558 c-1 591 -4 644 -50 764 -49 130 -163 236 -298 278 -74
23 -212 33 -287 21z"/>
<path d="M16671 3976 c-153 -30 -296 -106 -401 -216 -311 -327 -304 -919 16
-1220 73 -69 102 -90 190 -134 125 -62 216 -81 399 -81 90 0 193 6 235 14 165
30 356 106 346 139 -3 9 -10 54 -17 99 -7 45 -15 87 -19 93 -4 7 -33 -2 -81
-24 -121 -56 -209 -77 -349 -83 -253 -10 -423 63 -536 234 -42 64 -89 191 -99
271 l-7 52 582 0 583 0 -6 138 c-12 322 -133 544 -360 659 -117 59 -333 86
-476 59z m309 -253 c36 -17 79 -43 96 -59 67 -62 121 -177 138 -296 l7 -48
-431 0 -432 0 7 33 c25 126 91 248 166 309 94 76 163 99 289 95 82 -2 104 -7
160 -34z"/>
<path d="M18536 3969 c-133 -33 -262 -151 -346 -316 l-29 -58 -1 178 0 177
-225 0 c-124 0 -225 -3 -225 -7 0 -5 18 -18 40 -31 53 -30 86 -76 105 -147 13
-51 15 -158 15 -732 l0 -673 149 0 149 0 5 453 c4 422 5 457 25 534 43 166
116 269 231 326 112 55 258 49 370 -15 18 -10 35 -17 37 -15 2 2 21 58 41 125
42 139 43 136 -44 178 -47 23 -70 28 -157 30 -55 2 -118 -1 -140 -7z"/>
<path d="M19366 3965 c-85 -22 -177 -69 -233 -119 -157 -141 -172 -401 -32
-561 49 -55 179 -136 363 -225 196 -95 262 -149 285 -232 34 -120 -45 -236
-181 -269 -144 -34 -400 29 -537 133 -13 10 -28 18 -33 18 -5 0 -7 -61 -6
-137 l3 -138 65 -32 c108 -54 222 -77 390 -77 125 -1 155 2 220 22 165 52 275
138 333 259 31 66 32 72 32 198 0 125 -1 133 -32 197 -56 118 -136 180 -413
318 -91 45 -184 96 -207 113 -112 86 -111 221 3 284 119 66 365 40 521 -54 31
-18 57 -33 59 -33 2 0 4 58 4 129 l0 130 -52 24 c-99 47 -163 59 -333 63 -118
3 -175 0 -219 -11z"/>
<path d="M13740 3941 c0 -5 13 -14 29 -20 38 -17 86 -67 108 -116 17 -37 18
-91 21 -742 l3 -703 149 0 150 0 0 795 0 795 -230 0 c-126 0 -230 -4 -230 -9z"/>
<path d="M14357 3944 c-4 -4 13 -19 36 -34 51 -32 92 -82 140 -170 30 -55 248
-531 482 -1055 34 -77 78 -174 97 -215 20 -42 38 -85 42 -98 6 -19 14 -22 60
-22 l53 0 125 293 c69 160 223 518 342 795 119 276 216 504 216 507 0 3 -66 4
-147 3 l-148 -3 -173 -435 c-95 -239 -191 -487 -212 -549 -34 -99 -40 -112
-48 -90 -5 13 -19 52 -32 87 -12 34 -111 270 -220 525 l-197 462 -205 3 c-112
1 -207 -1 -211 -4z"/>
<path d="M20240 3943 c0 -5 17 -17 37 -28 52 -29 90 -81 108 -150 13 -50 15
-158 15 -732 l0 -673 150 0 150 0 0 795 0 795 -230 0 c-126 0 -230 -3 -230 -7z"/>
<path d="M22120 3941 c0 -5 10 -13 21 -16 29 -10 105 -80 139 -131 30 -43 144
-269 410 -812 156 -320 163 -335 152 -366 -7 -18 -117 -260 -246 -537 l-233
-504 145 -3 c80 -1 149 1 153 5 11 11 1089 2350 1089 2363 0 7 -46 10 -145 8
l-146 -3 -218 -478 c-120 -263 -222 -478 -227 -478 -4 -1 -109 216 -232 480
l-224 481 -219 0 c-129 0 -219 -4 -219 -9z"/>
<path d="M1485 1484 l25 -37 0 -494 0 -495 198 4 c184 3 200 5 241 26 99 53
143 129 149 259 4 85 2 97 -23 148 -29 60 -70 98 -130 118 l-37 13 25 17 c77
50 111 128 105 235 -6 115 -60 194 -155 228 -27 9 -96 13 -230 14 l-192 0 24
-36z m362 -90 c40 -29 73 -99 73 -154 0 -55 -33 -125 -73 -154 -23 -17 -47
-22 -118 -24 l-89 -4 0 182 0 182 89 -4 c71 -2 95 -7 118 -24z m11 -450 c109
-45 149 -170 91 -286 -35 -69 -103 -97 -236 -98 l-73 0 0 200 0 200 90 0 c59
0 104 -5 128 -16z"/>
<path d="M5649 1503 c36 -30 41 -103 41 -584 l0 -459 55 0 55 0 0 258 0 259
30 41 c40 55 81 76 139 69 96 -11 111 -65 111 -392 l0 -235 56 0 55 0 -3 288
c-3 283 -3 288 -28 336 -65 128 -203 153 -314 55 l-46 -41 0 211 0 211 -86 0
c-83 0 -86 -1 -65 -17z"/>
<path d="M2263 1488 c-55 -27 -50 -114 8 -138 89 -37 151 99 63 139 -30 13
-42 13 -71 -1z"/>
<path d="M4085 1475 c-35 -34 -34 -86 2 -115 51 -40 123 -3 123 62 0 36 -40
78 -75 78 -14 0 -37 -11 -50 -25z"/>
<path d="M2795 1185 c-45 -24 -74 -55 -101 -105 l-23 -45 -1 73 0 72 -80 0
-81 0 23 -31 c23 -30 23 -35 26 -360 l3 -329 53 0 53 0 6 218 c6 247 17 304
72 359 27 27 41 33 77 33 24 0 53 -7 64 -15 10 -8 22 -15 25 -15 3 0 11 25 18
56 12 51 11 58 -6 75 -26 26 -91 33 -128 14z"/>
<path d="M3279 1191 c-42 -14 -79 -42 -105 -80 l-24 -36 0 53 0 52 -82 0 -81
0 24 -26 24 -26 3 -334 3 -334 59 0 60 0 0 258 c0 287 1 291 73 346 59 45 144
27 166 -35 7 -20 11 -130 11 -300 l0 -269 60 0 60 0 0 259 c0 252 1 259 23
292 45 67 124 97 179 68 46 -24 52 -66 56 -351 l4 -268 55 0 54 0 -3 293 c-4
326 -8 348 -74 406 -79 70 -221 43 -288 -56 l-23 -33 -16 34 c-34 72 -138 113
-218 87z"/>
<path d="M4644 1191 c-48 -12 -100 -48 -123 -84 l-21 -32 0 53 0 52 -80 0 -81
0 23 -31 c23 -30 23 -35 26 -360 l3 -329 59 0 60 0 0 263 0 263 35 41 c42 49
83 68 132 60 45 -8 80 -40 93 -86 5 -20 10 -150 10 -288 l0 -253 56 0 55 0 -3
293 c-3 284 -4 293 -27 340 -39 80 -129 120 -217 98z"/>
<path d="M6470 1187 c-26 -7 -63 -23 -83 -36 -35 -22 -37 -25 -37 -76 l0 -54
50 31 c130 80 247 26 238 -109 l-3 -46 -68 -19 c-173 -47 -250 -125 -250 -253
0 -94 41 -153 123 -175 63 -17 122 1 178 53 29 28 32 29 32 11 0 -36 41 -64
94 -64 66 0 86 13 86 56 0 31 -2 34 -23 29 -48 -12 -52 8 -57 281 l-5 252 -30
44 c-51 72 -149 102 -245 75z m170 -476 l0 -109 -35 -31 c-49 -43 -114 -44
-151 -3 -23 24 -26 34 -22 84 5 63 27 96 83 126 28 14 100 40 118 41 4 1 7
-48 7 -108z"/>
<path d="M7190 1193 c-54 -20 -86 -41 -111 -76 l-29 -40 0 51 0 52 -82 -1
c-46 0 -77 -3 -70 -6 7 -3 20 -19 29 -36 15 -28 18 -75 21 -354 l4 -323 54 0
54 0 0 259 c0 252 1 259 23 292 45 67 124 97 178 69 10 -6 27 -25 36 -43 16
-28 18 -67 21 -304 l3 -273 55 0 54 0 0 258 0 259 30 41 c74 103 189 96 219
-14 6 -23 11 -142 11 -291 l0 -253 55 0 55 0 0 270 c0 151 -5 291 -11 318 -13
61 -65 126 -115 142 -83 28 -187 -13 -239 -93 l-18 -29 -15 29 c-23 46 -63 82
-101 93 -38 11 -86 12 -111 3z"/>
<path d="M2222 1149 c23 -30 23 -35 26 -360 l3 -329 54 0 55 0 0 360 0 360
-80 0 -81 0 23 -31z"/>
<path d="M4041 1167 c37 -28 39 -49 39 -381 l0 -326 60 0 60 0 0 360 0 360
-87 0 c-71 -1 -85 -3 -72 -13z"/>
<path d="M5187 1164 c-184 -57 -212 -353 -43 -441 l30 -16 -36 -18 c-88 -45
-91 -131 -6 -175 l30 -16 -49 -22 c-59 -28 -99 -72 -113 -128 -42 -155 103
-270 321 -255 172 11 280 111 267 247 -6 57 -43 112 -96 143 -17 10 -84 29
-148 42 -125 26 -168 50 -162 89 4 28 59 62 113 70 100 15 161 58 195 138 28
64 24 151 -9 216 l-21 42 55 0 55 0 0 50 0 50 -167 -1 c-118 0 -182 -5 -216
-15z m153 -103 c84 -58 78 -210 -10 -269 -61 -41 -136 -14 -171 61 -23 52 -24
94 -3 147 33 81 115 108 184 61z m32 -641 c20 -6 50 -23 67 -39 26 -24 31 -37
31 -74 0 -39 -5 -49 -35 -76 -90 -79 -272 -61 -318 32 -44 87 36 165 168 167
28 0 67 -5 87 -10z"/>
</g>
</svg>
